<?xml version="1.0" standalone="no"?>
<!DOCTYPE svg PUBLIC "-//W3C//DTD SVG 20010904//EN"
 "http://www.w3.org/TR/2001/REC-SVG-20010904/DTD/svg10.dtd">
<svg version="1.0" xmlns="http://www.w3.org/2000/svg"
 width="512.000000pt" height="512.000000pt" viewBox="0 0 512.000000 512.000000"
 preserveAspectRatio="xMidYMid meet">
<metadata>
Created by potrace 1.11, written by Peter Selinger 2001-2013
</metadata>
<g transform="translate(0.000000,512.000000) scale(0.100000,-0.100000)"
fill="#000000" stroke="none">
<path d="M2320 5109 c-491 -47 -981 -246 -1366 -557 -599 -482 -954 -1224
-954 -1992 0 -577 204 -1155 568 -1606 482 -599 1224 -954 1992 -954 577 0
1155 204 1606 568 599 482 954 1224 954 1992 0 577 -204 1155 -568 1606 -433
538 -1071 879 -1767 944 -125 11 -340 11 -465 -1z m-480 -1684 c122 -18 188
-38 275 -83 93 -48 191 -146 233 -232 82 -167 80 -384 -5 -529 -34 -59 -134
-164 -190 -199 -24 -15 -43 -29 -43 -32 1 -3 65 -87 144 -188 78 -101 157
-208 175 -237 l33 -54 -22 -45 c-25 -52 -76 -101 -134 -127 -62 -28 -186 -26
-251 5 -73 34 -115 86 -265 328 l-135 218 -72 0 -73 0 0 -269 c0 -248 -1 -270
-17 -275 -46 -14 -201 -26 -256 -21 -82 9 -121 22 -157 52 -60 50 -60 54 -60
827 0 796 -5 749 81 793 54 28 180 60 279 72 122 14 357 12 460 -4z m1680 0
c121 -18 189 -39 270 -81 133 -69 228 -173 276 -299 32 -84 43 -243 25 -350
-24 -137 -105 -270 -210 -344 -125 -88 -244 -118 -488 -128 l-173 -6 0 -253
c0 -232 -1 -253 -17 -258 -85 -26 -274 -28 -351 -4 -48 15 -100 64 -112 106
-6 24 -10 300 -10 759 l0 721 25 30 c42 50 166 92 335 111 121 14 328 12 430
-4z"/>
<path d="M1523 3040 c-23 -9 -23 -11 -23 -215 l0 -205 118 0 c138 0 180 10
229 53 47 42 63 82 63 163 0 141 -80 205 -264 211 -55 2 -111 -1 -123 -7z"/>
<path d="M3228 3043 c-16 -4 -18 -23 -18 -219 l0 -214 108 0 c128 0 170 10
219 53 48 42 63 82 63 167 0 154 -86 221 -280 219 -41 -1 -83 -3 -92 -6z"/>
</g>
</svg>
